<svg width="141" height="42" viewBox="0 0 141 42" fill="none" xmlns="http://www.w3.org/2000/svg">
<path d="M58.904 32.28C57.6907 32.28 56.58 32.1307 55.572 31.832C54.5827 31.5333 53.696 31.0947 52.912 30.516C52.1467 29.9373 51.456 29.2373 50.84 28.416L53.472 25.42C54.3867 26.6893 55.292 27.5573 56.188 28.024C57.1027 28.472 58.092 28.696 59.156 28.696C59.7347 28.696 60.248 28.6213 60.696 28.472C61.1627 28.304 61.5267 28.0707 61.788 27.772C62.0493 27.4733 62.18 27.1187 62.18 26.708C62.18 26.4093 62.1147 26.1387 61.984 25.896C61.8533 25.6347 61.6667 25.4107 61.424 25.224C61.1813 25.0187 60.892 24.8413 60.556 24.692C60.22 24.524 59.8467 24.384 59.436 24.272C59.0253 24.1413 58.5773 24.0387 58.092 23.964C57.0467 23.7213 56.132 23.432 55.348 23.096C54.564 22.7413 53.9107 22.312 53.388 21.808C52.8653 21.2853 52.4733 20.6973 52.212 20.044C51.9693 19.3907 51.848 18.6533 51.848 17.832C51.848 16.992 52.0347 16.2173 52.408 15.508C52.7813 14.78 53.2947 14.1547 53.948 13.632C54.62 13.1093 55.3853 12.708 56.244 12.428C57.1213 12.148 58.0453 12.008 59.016 12.008C60.2107 12.008 61.256 12.148 62.152 12.428C63.048 12.6893 63.8227 13.072 64.476 13.576C65.148 14.08 65.708 14.696 66.156 15.424L63.496 18C63.104 17.4773 62.6747 17.0387 62.208 16.684C61.76 16.3293 61.2653 16.068 60.724 15.9C60.2013 15.7133 59.66 15.62 59.1 15.62C58.484 15.62 57.952 15.704 57.504 15.872C57.056 16.0213 56.7013 16.2453 56.44 16.544C56.1973 16.8427 56.076 17.2067 56.076 17.636C56.076 17.972 56.16 18.2707 56.328 18.532C56.496 18.7933 56.7387 19.0267 57.056 19.232C57.3733 19.4187 57.756 19.5867 58.204 19.736C58.652 19.8853 59.1467 20.016 59.688 20.128C60.7147 20.3333 61.6387 20.604 62.46 20.94C63.2813 21.276 63.9813 21.6867 64.56 22.172C65.1573 22.6387 65.6147 23.1987 65.932 23.852C66.2493 24.4867 66.408 25.2053 66.408 26.008C66.408 27.3333 66.0907 28.4627 65.456 29.396C64.8213 30.3293 63.944 31.048 62.824 31.552C61.704 32.0373 60.3973 32.28 58.904 32.28ZM71.0801 32V13.436H75.0561V32H71.0801ZM68.3081 20.744V17.188H78.0801V20.744H68.3081ZM85.7676 32.28C84.6849 32.28 83.7516 32.0467 82.9676 31.58C82.2023 31.0947 81.6049 30.4133 81.1756 29.536C80.7649 28.64 80.5596 27.5667 80.5596 26.316V17.188H84.5356V25.672C84.5356 26.344 84.6476 26.932 84.8716 27.436C85.0956 27.9213 85.4129 28.2947 85.8236 28.556C86.2343 28.8173 86.7383 28.948 87.3356 28.948C87.7649 28.948 88.1663 28.8827 88.5396 28.752C88.9129 28.6027 89.2303 28.3973 89.4916 28.136C89.7529 27.8747 89.9583 27.5667 90.1076 27.212C90.2569 26.8573 90.3316 26.4747 90.3316 26.064V17.188H94.3076V32H90.5276L90.3876 28.948L91.1156 28.612C90.8916 29.3027 90.5183 29.928 89.9956 30.488C89.4729 31.048 88.8476 31.4867 88.1196 31.804C87.3916 32.1213 86.6076 32.28 85.7676 32.28ZM104.104 32.28C102.816 32.28 101.659 31.9533 100.632 31.3C99.6056 30.628 98.7936 29.7227 98.1963 28.584C97.6176 27.4267 97.3283 26.092 97.3283 24.58C97.3283 23.1053 97.6176 21.7893 98.1963 20.632C98.7936 19.4747 99.5963 18.56 100.604 17.888C101.631 17.216 102.798 16.88 104.104 16.88C104.795 16.88 105.458 16.992 106.092 17.216C106.746 17.4213 107.324 17.7107 107.828 18.084C108.351 18.4573 108.771 18.8773 109.088 19.344C109.406 19.792 109.583 20.268 109.62 20.772L108.612 20.94V11.28H112.588V32H108.836L108.668 28.584L109.452 28.668C109.415 29.1347 109.247 29.5827 108.948 30.012C108.65 30.4413 108.248 30.8333 107.744 31.188C107.259 31.524 106.699 31.7947 106.064 32C105.448 32.1867 104.795 32.28 104.104 32.28ZM105 28.976C105.747 28.976 106.4 28.7893 106.96 28.416C107.52 28.0427 107.959 27.5293 108.276 26.876C108.594 26.2227 108.752 25.4573 108.752 24.58C108.752 23.7213 108.594 22.9653 108.276 22.312C107.959 21.64 107.52 21.1267 106.96 20.772C106.4 20.3987 105.747 20.212 105 20.212C104.254 20.212 103.6 20.3987 103.04 20.772C102.499 21.1267 102.07 21.64 101.752 22.312C101.454 22.9653 101.304 23.7213 101.304 24.58C101.304 25.4573 101.454 26.2227 101.752 26.876C102.07 27.5293 102.499 28.0427 103.04 28.416C103.6 28.7893 104.254 28.976 105 28.976ZM116.801 32V17.188H120.777V32H116.801ZM118.761 14.136C117.995 14.136 117.398 13.9493 116.969 13.576C116.539 13.2027 116.325 12.6707 116.325 11.98C116.325 11.3453 116.539 10.832 116.969 10.44C117.417 10.0293 118.014 9.824 118.761 9.824C119.526 9.824 120.123 10.02 120.553 10.412C120.982 10.7853 121.197 11.308 121.197 11.98C121.197 12.6333 120.973 13.156 120.525 13.548C120.095 13.94 119.507 14.136 118.761 14.136ZM131.911 32.28C130.399 32.28 129.046 31.9533 127.851 31.3C126.675 30.628 125.742 29.7133 125.051 28.556C124.379 27.3987 124.043 26.0733 124.043 24.58C124.043 23.0867 124.379 21.7707 125.051 20.632C125.742 19.4747 126.675 18.56 127.851 17.888C129.046 17.216 130.399 16.88 131.911 16.88C133.404 16.88 134.739 17.216 135.915 17.888C137.11 18.56 138.043 19.4747 138.715 20.632C139.387 21.7707 139.723 23.0867 139.723 24.58C139.723 26.0733 139.387 27.3987 138.715 28.556C138.043 29.7133 137.11 30.628 135.915 31.3C134.739 31.9533 133.404 32.28 131.911 32.28ZM131.911 28.808C132.639 28.808 133.292 28.6307 133.871 28.276C134.45 27.9027 134.898 27.3987 135.215 26.764C135.551 26.1107 135.719 25.3827 135.719 24.58C135.719 23.7587 135.551 23.0307 135.215 22.396C134.898 21.7427 134.45 21.2387 133.871 20.884C133.292 20.5107 132.639 20.324 131.911 20.324C131.164 20.324 130.502 20.5107 129.923 20.884C129.344 21.2573 128.887 21.7613 128.551 22.396C128.215 23.0307 128.056 23.7587 128.075 24.58C128.056 25.3827 128.215 26.1107 128.551 26.764C128.887 27.3987 129.344 27.9027 129.923 28.276C130.502 28.6307 131.164 28.808 131.911 28.808Z" fill="black"/>
<circle cx="21" cy="21" r="21" fill="#CEE0FA"/>
<rect x="11.0015" y="14.8004" width="20" height="6" rx="3" transform="rotate(-29.3417 11.0015 14.8004)" fill="#0B63E5"/>
<rect x="13.9875" y="21.7639" width="8" height="6" rx="3" transform="rotate(-29.3417 13.9875 21.7639)" fill="#0B63E5"/>
<rect x="10" y="32.6476" width="20" height="6" rx="3" transform="rotate(-29.3417 10 32.6476)" fill="#0B63E5"/>
</svg>
